<?xml version="1.0" encoding="UTF-8"?>
<svg width="22px" height="19px" viewBox="0 0 22 19" version="1.1" xmlns="http://www.w3.org/2000/svg" xmlns:xlink="http://www.w3.org/1999/xlink">
    <title>heart outline icon</title>
    <g id="wireframes" stroke="none" stroke-width="1" fill="none" fill-rule="evenodd">
        <g id="heart-icon" stroke="#FFFFFF" stroke-width="2.5">
            <path d="M3.84574868,1.71323743 C4.78136758,1.18962844 6.0693065,1.11309903 7.25515129,1.4518346 C8.31714693,1.75519277 9.31637757,2.40585134 9.91274858,3.45717196 L9.91274858,3.45717196 L11,5.37384768 L12.0872514,3.45717196 C12.6862565,2.40120788 13.585196,1.7432512 14.6031403,1.45247627 C15.7682752,1.11965647 17.0739884,1.2544822 18.2696176,1.7702122 C19.1129911,2.13399812 19.7271706,2.6507852 20.1228817,3.34836969 C20.5730606,4.1419737 20.75,5.13878441 20.75,6.32581873 C20.75,9.90631749 17.3023626,13.5783464 10.9989761,17.5292697 C4.69720225,13.5778829 1.25,9.90609153 1.25,6.32581873 C1.25,5.16454494 1.41471977,4.25897465 1.83256131,3.52237709 C2.2541776,2.77912517 2.92818244,2.22674345 3.84574868,1.71323743 Z" id="heart-outline-icon"></path>
        </g>
    </g>
</svg>