<?xml version="1.0" encoding="UTF-8"?>
<svg width="22px" height="19px" viewBox="0 0 22 19" version="1.1" xmlns="http://www.w3.org/2000/svg" xmlns:xlink="http://www.w3.org/1999/xlink">
    <title>heart icon</title>
    <g id="wireframes" stroke="none" stroke-width="1" fill="none" fill-rule="evenodd">
        <g id="top-navigation-bar" transform="translate(-328.000000, -6.000000)" fill="#404040" stroke="#404040" stroke-width="1.5">
            <g id="heart-icon" transform="translate(328.000000, 6.000000)">
                <path d="M3.60156685,1.27691732 C4.64066375,0.695397996 6.07110484,0.593613822 7.3924829,0.971064356 C8.5762713,1.30921252 9.68400026,2.0405484 10.3476491,3.21047073 L10.3476491,3.21047073 L11,4.36047616 L11.6523509,3.21047073 C12.3220354,2.02990829 13.3283673,1.2966152 14.4658087,0.971706028 C15.7365385,0.608723121 17.1619544,0.747894179 18.4676529,1.31110219 C19.4222513,1.72286453 20.1107744,2.31365471 20.5577822,3.10166846 C21.0452615,3.96102778 21.25,5.03777661 21.25,6.32581873 C21.25,10.0618527 17.7093308,13.9538238 10.9994667,18.1187864 C4.29022867,13.9533395 0.75,10.0616202 0.75,6.32581873 C0.75,5.05944556 0.94304939,4.07709358 1.39766074,3.27567586 C1.86064043,2.45950592 2.591407,1.84224235 3.60156685,1.27691732 Z"></path>
            </g>
        </g>
    </g>
</svg>