<?xml version="1.0" encoding="UTF-8"?>
<svg width="21px" height="21px" viewBox="0 0 21 21" version="1.1" xmlns="http://www.w3.org/2000/svg" xmlns:xlink="http://www.w3.org/1999/xlink">
    <title>noun_seashell_2524713</title>
    <g id="wireframes" stroke="none" stroke-width="1" fill="none" fill-rule="evenodd">
        <g id="top-navigation-bar" transform="translate(0.000000, -5.000000)" fill="#404040" fill-rule="nonzero">
            <g id="noun_seashell_2524713" transform="translate(0.000000, 5.000000)">
                <path d="M15.5168276,3.04210345 C15.0794483,2.68944828 10.9033448,-0.490965517 4.77062069,1.21655172 C4.4367931,1.32589655 1.47724138,2.33244828 0.287482759,3.96755172 C0.208551724,4.07617241 0.160758621,4.20506897 0.151344828,4.33903448 C0.139034483,4.49689655 -0.0687931034,8.0162069 4.66924138,10.1560345 C4.58596552,10.2574138 4.50341379,10.3631379 4.41941379,10.4717586 C4.39624138,10.5028966 4.3737931,10.5362069 4.35568966,10.5716897 C3.39186207,12.3914483 2.61196552,16.5566897 6.54331034,19.3171034 C6.84527586,19.5662069 8.70775862,21.0007241 11.3704138,21.0007241 C12.9743793,21.0007241 14.8687241,20.4793448 16.8868966,18.8637931 C17.0223103,18.7602414 20.1954828,16.2728276 20.1266897,10.8787241 C20.118,10.6795862 19.8616552,5.97413793 15.5168276,3.04210345 Z M15.9954828,17.7232759 C11.3037931,21.4801034 7.61793103,18.3344483 7.46586207,18.2004828 C7.44413793,18.1816552 7.42096552,18.1628276 7.3977931,18.1468966 C3.69237931,15.5646207 5.37165517,11.7904138 5.61206897,11.298 C8.31093103,7.80041379 10.8121034,9.16758621 10.946069,9.24362069 C13.881,10.7838621 13.1807586,13.0453448 13.0924138,13.2951724 C12.1814483,15.7789655 9.95834483,15.1076897 9.74472414,15.0367241 C9.03941379,14.7506897 8.62375862,14.3784828 8.50789655,13.9309655 C8.32396552,13.2184138 8.8772069,12.3298966 9.07924138,12.0778966 C9.25448276,11.891069 9.71213793,11.5101724 10.2393103,11.9091724 C10.3377931,12.0286552 10.4956552,12.2828276 10.4688621,12.4653103 C10.4471379,12.6195517 10.2653793,12.7578621 10.116931,12.8476552 C9.77441379,13.0540345 9.66434483,13.4993793 9.87072414,13.8418966 C10.0763793,14.1844138 10.521,14.2944828 10.8649655,14.0881034 C11.628931,13.6268276 11.8519655,13.0525862 11.9055517,12.6528621 C12.0301034,11.7114828 11.3414483,10.9634483 11.2625172,10.8816207 C11.2429655,10.8613448 11.2226897,10.8425172 11.2009655,10.8244138 C9.96124138,9.79903448 8.61072414,10.431931 7.9857931,11.13 C7.854,11.2900345 6.71131034,12.7375862 7.1037931,14.2836207 C7.33696552,15.2047241 8.043,15.9100345 9.23348276,16.3923103 C10.542,16.8477931 13.314,16.8948621 14.4508966,13.7977241 C14.9186897,12.5391724 14.9295517,9.69982759 11.6535517,7.98072414 C11.6209655,7.96189655 8.80189655,6.342 5.74024138,9.03724138 C2.08768966,7.57955172 1.64741379,5.32386207 1.59962069,4.64462069 C2.47293103,3.65544828 4.48024138,2.83644828 5.18989655,2.60182759 C10.7512759,1.05724138 14.4661034,4.053 14.6203448,4.17972414 C14.6391724,4.19565517 14.6601724,4.21086207 14.6811724,4.22534483 C18.4293103,6.73810345 18.6784138,10.9026207 18.6791379,10.92 C18.7392414,15.5313103 16.1171379,17.6276897 15.9954828,17.7232759 Z M9.67450218,4.23041379 C9.67158621,4.62868966 9.34789655,4.94948276 8.95034483,4.94948276 C8.93586207,4.94803448 8.9097931,4.94948276 8.8887931,4.94948276 C8.4477931,4.94948276 8.00172414,4.98858621 7.56506897,5.06534483 C7.52234483,5.07258621 7.48106897,5.0762069 7.43906897,5.0762069 C7.09365517,5.0762069 6.7887931,4.82927586 6.72724138,4.47734483 C6.657,4.08341379 6.92131034,3.70758621 7.31524138,3.6387931 C7.85689655,3.5432069 8.41231034,3.50482759 8.95686207,3.5012069 C9.35586207,3.50410345 9.67737931,3.83068966 9.67450218,4.23041379 Z M16.3437931,9.50141379 C16.254,9.53834483 16.1613103,9.55572414 16.070069,9.55572414 C15.7847586,9.55572414 15.513931,9.38555172 15.3995172,9.10458621 C14.9281034,7.95031034 14.175,7.0197931 13.1597586,6.33910345 C13.1387586,6.32462069 13.1177586,6.30941379 13.098931,6.29348276 C13.0931379,6.28913793 12.311069,5.6547931 11.0047241,5.26086207 C10.6231034,5.14572414 10.4058621,4.74237931 10.5217241,4.35931034 C10.6368621,3.97624138 11.0402069,3.76044828 11.424,3.87486207 C12.8816897,4.31441379 13.8056897,5.00596552 13.9932414,5.15441379 C15.2206552,5.98572414 16.1707241,7.16172414 16.7406207,8.55786207 C16.8919655,8.92789655 16.7145517,9.3507931 16.3437931,9.50141379 Z" id="Shape"></path>
            </g>
        </g>
    </g>
</svg>